<mxfile host="app.diagrams.net" agent="Mozilla/5.0 (Windows NT 10.0; Win64; x64) AppleWebKit/537.36 (KHTML, like Gecko) Chrome/133.0.0.0 Safari/537.36 OPR/118.0.0.0" version="27.0.9">
  <diagram name="Página-1" id="15OqeyYKwYBKOfiOSQr1">
    <mxGraphModel dx="1812" dy="438" grid="1" gridSize="10" guides="1" tooltips="1" connect="1" arrows="1" fold="1" page="1" pageScale="1" pageWidth="827" pageHeight="1169" math="0" shadow="0">
      <root>
        <mxCell id="0" />
        <mxCell id="1" parent="0" />
        <mxCell id="H4ihJxJZsjJIqkR5scYK-2" value="Pagina web" style="rounded=1;whiteSpace=wrap;html=1;" vertex="1" parent="1">
          <mxGeometry x="340" y="240" width="120" height="60" as="geometry" />
        </mxCell>
        <mxCell id="H4ihJxJZsjJIqkR5scYK-3" value="Cliente" style="rounded=1;whiteSpace=wrap;html=1;" vertex="1" parent="1">
          <mxGeometry x="90" y="130" width="120" height="60" as="geometry" />
        </mxCell>
        <mxCell id="H4ihJxJZsjJIqkR5scYK-4" value="Base de datos" style="rounded=1;whiteSpace=wrap;html=1;" vertex="1" parent="1">
          <mxGeometry x="580" y="130" width="120" height="60" as="geometry" />
        </mxCell>
        <mxCell id="H4ihJxJZsjJIqkR5scYK-5" value="" style="endArrow=classic;html=1;rounded=0;entryX=0;entryY=0.25;entryDx=0;entryDy=0;exitX=1;exitY=0.75;exitDx=0;exitDy=0;" edge="1" parent="1" source="H4ihJxJZsjJIqkR5scYK-3" target="H4ihJxJZsjJIqkR5scYK-2">
          <mxGeometry width="50" height="50" relative="1" as="geometry">
            <mxPoint x="210" y="270" as="sourcePoint" />
            <mxPoint x="260" y="220" as="targetPoint" />
          </mxGeometry>
        </mxCell>
        <mxCell id="H4ihJxJZsjJIqkR5scYK-6" value="" style="endArrow=classic;html=1;rounded=0;entryX=1;entryY=1;entryDx=0;entryDy=0;exitX=0;exitY=0.5;exitDx=0;exitDy=0;" edge="1" parent="1" source="H4ihJxJZsjJIqkR5scYK-2" target="H4ihJxJZsjJIqkR5scYK-3">
          <mxGeometry width="50" height="50" relative="1" as="geometry">
            <mxPoint x="250" y="310" as="sourcePoint" />
            <mxPoint x="300" y="260" as="targetPoint" />
          </mxGeometry>
        </mxCell>
        <mxCell id="H4ihJxJZsjJIqkR5scYK-7" value="" style="endArrow=classic;html=1;rounded=0;entryX=0;entryY=0.75;entryDx=0;entryDy=0;exitX=1;exitY=0;exitDx=0;exitDy=0;" edge="1" parent="1" source="H4ihJxJZsjJIqkR5scYK-2" target="H4ihJxJZsjJIqkR5scYK-4">
          <mxGeometry width="50" height="50" relative="1" as="geometry">
            <mxPoint x="440" y="230" as="sourcePoint" />
            <mxPoint x="490" y="180" as="targetPoint" />
          </mxGeometry>
        </mxCell>
        <mxCell id="H4ihJxJZsjJIqkR5scYK-8" value="" style="endArrow=classic;html=1;rounded=0;exitX=0;exitY=1;exitDx=0;exitDy=0;entryX=1;entryY=0.25;entryDx=0;entryDy=0;" edge="1" parent="1" source="H4ihJxJZsjJIqkR5scYK-4" target="H4ihJxJZsjJIqkR5scYK-2">
          <mxGeometry width="50" height="50" relative="1" as="geometry">
            <mxPoint x="560" y="280" as="sourcePoint" />
            <mxPoint x="610" y="230" as="targetPoint" />
          </mxGeometry>
        </mxCell>
        <mxCell id="H4ihJxJZsjJIqkR5scYK-11" value="1.1: clienta ingresa datos" style="text;html=1;align=center;verticalAlign=middle;whiteSpace=wrap;rounded=0;rotation=0;" vertex="1" parent="1">
          <mxGeometry x="210" y="130" width="150" height="20" as="geometry" />
        </mxCell>
        <mxCell id="H4ihJxJZsjJIqkR5scYK-13" value="1.2: web manda datos a server" style="text;html=1;align=center;verticalAlign=middle;whiteSpace=wrap;rounded=0;rotation=0;" vertex="1" parent="1">
          <mxGeometry x="400" y="130" width="180" height="20" as="geometry" />
        </mxCell>
        <mxCell id="H4ihJxJZsjJIqkR5scYK-14" value="1.3: server valida datos" style="text;html=1;align=center;verticalAlign=middle;whiteSpace=wrap;rounded=0;rotation=0;" vertex="1" parent="1">
          <mxGeometry x="580" y="190" width="140" height="20" as="geometry" />
        </mxCell>
        <mxCell id="H4ihJxJZsjJIqkR5scYK-15" value="1.3alt: server no valida los datos" style="text;html=1;align=center;verticalAlign=middle;whiteSpace=wrap;rounded=0;rotation=0;" vertex="1" parent="1">
          <mxGeometry x="580" y="210" width="190" height="20" as="geometry" />
        </mxCell>
        <mxCell id="H4ihJxJZsjJIqkR5scYK-16" value="1.4: cliente recibe &quot;inicio de sesión realizado&quot;" style="text;html=1;align=center;verticalAlign=middle;whiteSpace=wrap;rounded=0;rotation=0;" vertex="1" parent="1">
          <mxGeometry x="-40" y="190" width="250" height="20" as="geometry" />
        </mxCell>
        <mxCell id="H4ihJxJZsjJIqkR5scYK-17" value="1.4alt : cliente recibe &quot;inicio de sesión incorrecto&quot;" style="text;html=1;align=center;verticalAlign=middle;whiteSpace=wrap;rounded=0;rotation=0;" vertex="1" parent="1">
          <mxGeometry x="-60" y="210" width="270" height="20" as="geometry" />
        </mxCell>
        <mxCell id="H4ihJxJZsjJIqkR5scYK-18" value="2.1: pedir observar el catalogo" style="text;html=1;align=center;verticalAlign=middle;whiteSpace=wrap;rounded=0;" vertex="1" parent="1">
          <mxGeometry x="210" y="150" width="180" height="20" as="geometry" />
        </mxCell>
        <mxCell id="H4ihJxJZsjJIqkR5scYK-19" value="2.2: solicita acceso al catalogo" style="text;html=1;align=center;verticalAlign=middle;whiteSpace=wrap;rounded=0;" vertex="1" parent="1">
          <mxGeometry x="400" y="150" width="180" height="20" as="geometry" />
        </mxCell>
        <mxCell id="H4ihJxJZsjJIqkR5scYK-20" value="1: INCIO DE SESION DE CLIENTE" style="text;html=1;align=center;verticalAlign=middle;whiteSpace=wrap;rounded=0;" vertex="1" parent="1">
          <mxGeometry x="270" y="60" width="130" height="30" as="geometry" />
        </mxCell>
        <mxCell id="H4ihJxJZsjJIqkR5scYK-21" value="2: CLIENTE VER CATALOGO DE COCHES" style="text;html=1;align=center;verticalAlign=middle;whiteSpace=wrap;rounded=0;" vertex="1" parent="1">
          <mxGeometry x="400" y="60" width="150" height="30" as="geometry" />
        </mxCell>
        <mxCell id="H4ihJxJZsjJIqkR5scYK-22" value="2.3: envía documento &quot;catalogo&quot;" style="text;html=1;align=center;verticalAlign=middle;whiteSpace=wrap;rounded=0;" vertex="1" parent="1">
          <mxGeometry x="582.5" y="230" width="185" height="20" as="geometry" />
        </mxCell>
        <mxCell id="H4ihJxJZsjJIqkR5scYK-23" value="2.4: web muestra al cliente en pantalla el catalogo" style="text;html=1;align=center;verticalAlign=middle;whiteSpace=wrap;rounded=0;" vertex="1" parent="1">
          <mxGeometry x="20" y="230" width="190" height="30" as="geometry" />
        </mxCell>
      </root>
    </mxGraphModel>
  </diagram>
</mxfile>
